<svg width="423" height="423" viewBox="0 0 423 423" fill="none" xmlns="http://www.w3.org/2000/svg">
<circle cx="211.158" cy="211.406" r="211" fill="url(#paint0_linear_5701_8413)"/>
<path d="M253.042 322.111H257.751C268.71 322.111 277.628 313.197 277.628 302.241V297.533C277.628 286.577 268.71 277.663 257.751 277.663H253.042C242.082 277.663 233.164 286.577 233.164 297.533V302.241C233.164 313.197 242.082 322.111 253.042 322.111Z" stroke="url(#paint1_linear_5701_8413)" stroke-width="3"/>
<path d="M123.059 319.112C113.755 319.112 106.181 311.54 106.181 302.241V297.534C106.181 288.235 113.755 280.663 123.059 280.663H154.77C163.997 280.663 171.504 273.16 171.504 263.935V232.236C171.504 222.937 179.078 215.365 188.381 215.365H323.736C333.039 215.365 340.613 222.937 340.613 232.236V236.943C340.613 246.242 333.039 253.814 323.736 253.814H226.702C217.474 253.814 209.968 261.317 209.968 270.542V302.241C209.968 311.54 202.394 319.112 193.09 319.112H123.059ZM188.381 215.508C179.154 215.508 171.648 223.011 171.648 232.236V263.935C171.648 273.234 164.074 280.806 154.77 280.806H123.059C113.832 280.806 106.325 288.309 106.325 297.534V302.241C106.325 311.466 113.832 318.969 123.059 318.969H193.09C202.317 318.969 209.824 311.466 209.824 302.241V270.542C209.824 261.243 217.398 253.671 226.702 253.671H323.736C332.963 253.671 340.469 246.168 340.469 236.943V232.236C340.469 223.011 332.963 215.508 323.736 215.508H188.381Z" stroke="url(#paint2_linear_5701_8413)" stroke-width="3"/>
<path d="M247.721 183.778H320.409C331.369 183.778 340.287 174.864 340.287 163.907V91.8722C340.287 80.9157 331.369 72.0015 320.409 72.0015H315.7C304.741 72.0015 295.823 80.9157 295.823 91.8722V125.602C295.823 133.169 289.66 139.329 282.089 139.329H247.721C236.762 139.329 227.843 148.243 227.843 159.2V163.907C227.843 174.864 236.762 183.778 247.721 183.778Z" stroke="url(#paint3_linear_5701_8413)" stroke-width="3"/>
<path d="M253.363 285.245H233.365C228.094 285.245 223.822 289.518 223.822 294.789V314.787C223.822 320.057 228.094 324.33 233.365 324.33H253.363C258.634 324.33 262.907 320.057 262.907 314.787V294.789C262.907 289.518 258.634 285.245 253.363 285.245Z" fill="#3BD4AE"/>
<path d="M329.503 248.17C329.503 250.701 328.497 253.129 326.708 254.919C324.918 256.709 322.49 257.714 319.959 257.714H205.807C203.28 257.72 200.858 258.728 199.073 260.518C197.289 262.307 196.286 264.731 196.286 267.258V314.79C196.286 317.321 195.281 319.749 193.491 321.539C191.701 323.329 189.274 324.334 186.743 324.334H71.7269C69.1957 324.334 66.7682 323.329 64.9784 321.539C63.1886 319.749 62.1831 317.321 62.1831 314.79V294.793C62.1831 292.261 63.1886 289.834 64.9784 288.044C66.7682 286.254 69.1957 285.249 71.7269 285.249H147.657C150.189 285.249 152.616 284.243 154.406 282.454C156.196 280.664 157.201 278.236 157.201 275.705V228.173C157.201 225.641 158.207 223.214 159.996 221.424C161.786 219.634 164.214 218.629 166.745 218.629H319.959C322.49 218.629 324.918 219.634 326.708 221.424C328.497 223.214 329.503 225.641 329.503 228.173V248.17Z" fill="#3BD4AE"/>
<path d="M223.822 181.572V161.551C223.822 159.026 224.825 156.604 226.61 154.819C228.395 153.033 230.817 152.03 233.342 152.03H280.898C283.425 152.024 285.846 151.016 287.631 149.227C289.416 147.437 290.418 145.013 290.418 142.486V94.954C290.418 92.4228 291.424 89.9953 293.213 88.2055C295.003 86.4157 297.431 85.4102 299.962 85.4102H319.96C322.491 85.4102 324.918 86.4157 326.708 88.2055C328.498 89.9953 329.503 92.4228 329.503 94.954V181.572C329.497 184.099 328.489 186.52 326.7 188.305C324.911 190.09 322.487 191.092 319.96 191.092H233.342C230.817 191.092 228.395 190.089 226.61 188.304C224.825 186.518 223.822 184.097 223.822 181.572Z" fill="#3BD4AE"/>
<defs>
<linearGradient id="paint0_linear_5701_8413" x1="184.783" y1="0.405758" x2="494.997" y2="564.031" gradientUnits="userSpaceOnUse">
<stop stop-color="#210E34"/>
<stop offset="1" stop-color="#5B2487"/>
</linearGradient>
<linearGradient id="paint1_linear_5701_8413" x1="234.664" y1="299.887" x2="276.128" y2="299.887" gradientUnits="userSpaceOnUse">
<stop stop-color="#221C46"/>
<stop offset="0.5" stop-color="#635799"/>
<stop offset="1" stop-color="#73F1D2"/>
</linearGradient>
<linearGradient id="paint2_linear_5701_8413" x1="104.681" y1="267.239" x2="342.113" y2="267.239" gradientUnits="userSpaceOnUse">
<stop stop-color="#221C46"/>
<stop offset="0.5" stop-color="#635799"/>
<stop offset="1" stop-color="#73F1D2"/>
</linearGradient>
<linearGradient id="paint3_linear_5701_8413" x1="229.343" y1="127.89" x2="338.787" y2="127.89" gradientUnits="userSpaceOnUse">
<stop stop-color="#221C46"/>
<stop offset="0.5" stop-color="#635799"/>
<stop offset="1" stop-color="#73F1D2"/>
</linearGradient>
</defs>
</svg>
